<svg width="21" height="22" viewBox="0 0 21 22" fill="none" xmlns="http://www.w3.org/2000/svg">
<path d="M14.641 20.5133V17.7169C14.6776 17.2523 14.6148 16.7852 14.4569 16.3468C14.299 15.9083 14.0495 15.5084 13.7251 15.1738C16.7846 14.8328 20 13.6733 20 8.3533C19.9997 6.99292 19.4765 5.68472 18.5385 4.69945C18.9826 3.50927 18.9512 2.19373 18.4508 1.02611C18.4508 1.02611 17.301 0.68508 14.641 2.46816C12.4078 1.86291 10.0537 1.86291 7.82049 2.46816C5.16048 0.68508 4.01073 1.02611 4.01073 1.02611C3.51028 2.19373 3.47887 3.50927 3.92304 4.69945C2.97804 5.69203 2.45422 7.01206 2.4615 8.38253C2.4615 13.6636 5.67689 14.8231 8.73638 15.2031C8.41582 15.5343 8.16859 15.9293 8.01079 16.3625C7.85298 16.7956 7.78814 17.2571 7.82049 17.7169V20.5133M7.82053 18.5646C4.89744 19.5126 2.46154 18.5646 1 15.6415" stroke="#BCBCBC" stroke-width="2" stroke-linecap="round" stroke-linejoin="round"/>
</svg>
