<svg width="124" height="124" viewBox="0 0 124 124" fill="none" xmlns="http://www.w3.org/2000/svg">
<circle cx="62" cy="62" r="60" stroke="white" stroke-width="4"/>
<g filter="url(#filter0_d_161_26)">
<path d="M60.1453 92.7714L36.4585 79.4296C35.6184 78.6475 35.1361 77.1101 35 76.4392V50.4457C35 49.1115 36.2446 47.7429 36.8669 47.2253L59.7952 34.2286C61.0087 33.8146 62.6734 34.0561 63.354 34.2286C70.4328 38.2925 84.8821 46.6043 86.049 47.3404C87.2158 48.0765 87.8187 49.6023 87.9742 50.2732C87.9937 58.401 88.0209 75.0245 87.9742 76.4967C87.9276 77.9689 86.9046 79.1037 86.399 79.4871L63.2374 92.7714C62.0239 93.1854 60.6703 92.9439 60.1453 92.7714Z" fill="white"/>
<path d="M71.4717 78.2676C74.2007 76.6065 76.4122 73.5764 77.1767 72.269L69.5308 67.8855C68.3545 70.0542 65.9039 71.4423 64.8257 71.8653C61.2497 72.742 57.8463 71.5 56.5916 70.7694C53.5921 68.866 53.4744 67.1933 52.7686 63.3866C52.4393 60.3411 54.788 57.7341 56.0035 56.8112C59.203 54.4579 62.0026 54.818 63.0024 54.8501C65.8726 54.9424 68.5898 57.6956 69.5896 59.0607L77.0591 54.6771C76.2945 52.37 70.0014 46.8905 64.8257 46.1407C59.3559 45.5062 55.3565 47.1212 52.0041 48.9093C49.3221 50.3397 46.5343 54.2349 45.4756 56.0037C43.8288 59.7528 43.8876 62.8675 44.1229 65.6937C44.3111 67.9547 45.7697 71.4039 46.4755 72.8458C48.1223 75.799 52.2981 78.4599 54.1802 79.4212C57.2386 80.8977 61.7281 81.0746 63.5905 80.9785C66.5078 80.6555 70.0602 79.0367 71.4717 78.2676Z" fill="#0B001D"/>
<path d="M72.3539 68.0008L72.4716 65.5783H71.2365V64.1941H72.8833V62.1753H71.6482V60.8487H73.1773V58.6569H74.5889V60.8487H76.4122V58.6569H77.7061V60.8487H79V62.1753H77.412V64.1941H78.6471L78.5883 65.5783H77.1179L76.9415 68.0008H75.4711L75.7652 65.5783H73.9419L73.7655 68.0008H72.3539Z" fill="#0B001D"/>
</g>
<defs>
<filter id="filter0_d_161_26" x="31" y="34" width="61" height="67" filterUnits="userSpaceOnUse" color-interpolation-filters="sRGB">
<feFlood flood-opacity="0" result="BackgroundImageFix"/>
<feColorMatrix in="SourceAlpha" type="matrix" values="0 0 0 0 0 0 0 0 0 0 0 0 0 0 0 0 0 0 127 0" result="hardAlpha"/>
<feOffset dy="4"/>
<feGaussianBlur stdDeviation="2"/>
<feComposite in2="hardAlpha" operator="out"/>
<feColorMatrix type="matrix" values="0 0 0 0 0 0 0 0 0 0 0 0 0 0 0 0 0 0 0.25 0"/>
<feBlend mode="normal" in2="BackgroundImageFix" result="effect1_dropShadow_161_26"/>
<feBlend mode="normal" in="SourceGraphic" in2="effect1_dropShadow_161_26" result="shape"/>
</filter>
</defs>
</svg>
