<svg width="124" height="124" viewBox="0 0 124 124" fill="none" xmlns="http://www.w3.org/2000/svg">
<g filter="url(#filter0_d_181_31)">
<path d="M75.7001 59.6114H75.71C80.8886 61.5434 87.995 64.1834 87.995 71.6558C87.9859 73.3862 87.6076 75.0951 86.885 76.6701C86.1749 78.246 85.14 79.6568 83.847 80.8117C82.5539 81.9666 81.0312 82.84 79.3772 83.3756C77.7258 83.9163 75.9788 84.1089 74.2481 83.941C73.896 83.9809 73.5419 84.0006 73.1875 84C70.1214 83.9849 67.1689 82.847 64.8967 80.8046C63.6018 79.6516 62.5636 78.2433 61.8486 76.6696C61.1335 75.096 60.7572 73.3917 60.7439 71.6656C60.7439 70.6726 61.1304 69.7483 61.8341 69.0503C62.5431 68.3829 63.4833 68.0108 64.4606 68.0108C65.438 68.0108 66.3781 68.3829 67.0871 69.0503C67.4355 69.3903 67.7118 69.7959 67.8999 70.2433C68.088 70.6908 68.184 71.171 68.1823 71.6558C68.1823 76.3359 73.3412 76.5718 74.3769 76.5718C75.4126 76.5718 80.5715 76.3359 80.5715 71.6558C80.5715 69.6254 78.3563 68.4702 73.0686 66.5037H73.0537C67.8701 64.5619 60.7489 61.922 60.7489 54.4496C60.7637 52.6945 61.1354 51.0132 61.8589 49.4352C62.5688 47.8587 63.6056 46.4483 64.9017 45.2959C66.1897 44.1408 67.7097 43.2695 69.3618 42.7395C72.6296 41.7535 76.1192 41.7535 79.3871 42.7395C81.878 43.5492 84.0496 45.1148 85.5951 47.2151C87.1406 49.3154 87.9818 51.8444 88 54.4446C88 55.4328 87.6135 56.3619 86.9098 57.0551C86.2005 57.7239 85.2593 58.0968 84.2808 58.0968C83.3022 58.0968 82.3611 57.7239 81.6518 57.0551C81.305 56.7142 81.0301 56.3082 80.8429 55.8609C80.6557 55.4136 80.5601 54.9339 80.5616 54.4496C80.5616 49.7695 75.4027 49.5335 74.367 49.5335C73.3313 49.5335 68.1724 49.7695 68.1724 54.4496C68.1724 56.4799 70.3876 57.6352 75.6753 59.6016L75.7001 59.6114ZM50.8276 45.8465C50.8276 44.8632 51.2142 43.939 51.9179 43.2409C52.6257 42.5713 53.5663 42.1978 54.5444 42.1978C55.5225 42.1978 56.463 42.5713 57.1709 43.2409C57.8746 43.9341 58.2611 44.8632 58.2611 45.8465V70.4267C58.262 73.1012 57.4632 75.7159 55.9658 77.9399C54.4684 80.164 52.3397 81.8975 49.8489 82.9211C47.3582 83.9447 44.6173 84.2124 41.9731 83.6904C39.3289 83.1684 36.9003 81.8801 34.9943 79.9885C33.7237 78.7363 32.7163 77.2463 32.0306 75.6049C31.345 73.9636 30.9947 72.2035 31.0001 70.4267V67.9687C31.0001 66.9855 31.3866 66.0613 32.0903 65.3632C32.7996 64.6944 33.7407 64.3215 34.7193 64.3215C35.6978 64.3215 36.639 64.6944 37.3483 65.3632C38.052 66.0564 38.4385 66.9855 38.4385 67.9687V70.4267C38.4385 72.049 39.1026 73.632 40.2523 74.7725C42.5566 77.0585 46.7095 77.0585 49.0139 74.7725C50.1636 73.6271 50.8276 72.0441 50.8276 70.4267V45.8465Z" fill="white"/>
</g>
<circle cx="62" cy="62" r="60" stroke="white" stroke-width="4"/>
<defs>
<filter id="filter0_d_181_31" x="27" y="42" width="65" height="50" filterUnits="userSpaceOnUse" color-interpolation-filters="sRGB">
<feFlood flood-opacity="0" result="BackgroundImageFix"/>
<feColorMatrix in="SourceAlpha" type="matrix" values="0 0 0 0 0 0 0 0 0 0 0 0 0 0 0 0 0 0 127 0" result="hardAlpha"/>
<feOffset dy="4"/>
<feGaussianBlur stdDeviation="2"/>
<feComposite in2="hardAlpha" operator="out"/>
<feColorMatrix type="matrix" values="0 0 0 0 0 0 0 0 0 0 0 0 0 0 0 0 0 0 0.25 0"/>
<feBlend mode="normal" in2="BackgroundImageFix" result="effect1_dropShadow_181_31"/>
<feBlend mode="normal" in="SourceGraphic" in2="effect1_dropShadow_181_31" result="shape"/>
</filter>
</defs>
</svg>
