<svg width="28" height="26" viewBox="0 0 28 26" fill="none" xmlns="http://www.w3.org/2000/svg">
<path d="M5.87618 2.89017C5.87579 3.65631 5.56587 4.39092 5.0146 4.93239C4.46332 5.47386 3.71585 5.77784 2.93662 5.77746C2.15739 5.77707 1.41023 5.47236 0.859508 4.93035C0.308785 4.38833 -0.000389247 3.65342 3.67792e-07 2.88728C0.000389983 2.12115 0.310311 1.38654 0.861586 0.845068C1.41286 0.303597 2.16033 -0.000382708 2.93956 3.61613e-07C3.71879 0.000383431 4.46595 0.305098 5.01667 0.847111C5.5674 1.38912 5.87657 2.12403 5.87618 2.89017ZM5.96432 7.91656H0.088143V26H5.96432V7.91656ZM15.2487 7.91656H9.40189V26H15.1899V16.5105C15.1899 11.2242 22.1973 10.7331 22.1973 16.5105V26H28V14.5462C28 5.63446 17.6285 5.96667 15.1899 10.3431L15.2487 7.91656Z" fill="#BCBCBC"/>
</svg>
