<svg width="144" height="144" viewBox="0 0 144 144" fill="none" xmlns="http://www.w3.org/2000/svg">
<g filter="url(#filter0_d_161_26)">
<circle cx="72" cy="72" r="60" stroke="#F50C46" stroke-width="4" shape-rendering="crispEdges"/>
</g>
<path d="M70.1453 99.7714L46.4585 86.4296C45.6184 85.6475 45.1361 84.1101 45 83.4392V57.4457C45 56.1115 46.2446 54.7429 46.8669 54.2253L69.7952 41.2286C71.0087 40.8146 72.6734 41.0561 73.354 41.2286C80.4328 45.2925 94.8821 53.6043 96.049 54.3404C97.2158 55.0765 97.8187 56.6023 97.9742 57.2732C97.9937 65.401 98.0209 82.0245 97.9742 83.4967C97.9276 84.9689 96.9046 86.1037 96.399 86.4871L73.2374 99.7714C72.0239 100.185 70.6703 99.9439 70.1453 99.7714Z" fill="#F50C46"/>
<path d="M81.4717 85.2676C84.2007 83.6065 86.4122 80.5764 87.1767 79.269L79.5308 74.8855C78.3545 77.0542 75.9039 78.4423 74.8257 78.8653C71.2497 79.742 67.8463 78.5 66.5916 77.7694C63.5921 75.866 63.4744 74.1933 62.7686 70.3866C62.4393 67.3411 64.788 64.7341 66.0035 63.8112C69.203 61.4579 72.0026 61.818 73.0024 61.8501C75.8726 61.9424 78.5898 64.6956 79.5896 66.0607L87.0591 61.6771C86.2945 59.37 80.0014 53.8905 74.8257 53.1407C69.3559 52.5062 65.3565 54.1212 62.0041 55.9093C59.3221 57.3397 56.5343 61.2349 55.4756 63.0037C53.8288 66.7528 53.8876 69.8675 54.1229 72.6937C54.3111 74.9547 55.7697 78.4039 56.4755 79.8458C58.1223 82.799 62.2981 85.4599 64.1802 86.4212C67.2386 87.8977 71.7281 88.0746 73.5905 87.9785C76.5078 87.6555 80.0602 86.0367 81.4717 85.2676Z" fill="#0B001D"/>
<path d="M82.3539 75.0008L82.4716 72.5783H81.2365V71.1941H82.8833V69.1753H81.6482V67.8487H83.1773V65.6569H84.5889V67.8487H86.4122V65.6569H87.7061V67.8487H89V69.1753H87.412V71.1941H88.6471L88.5883 72.5783H87.1179L86.9415 75.0008H85.4711L85.7652 72.5783H83.9419L83.7655 75.0008H82.3539Z" fill="#0B001D"/>
<defs>
<filter id="filter0_d_161_26" x="0" y="0" width="144" height="144" filterUnits="userSpaceOnUse" color-interpolation-filters="sRGB">
<feFlood flood-opacity="0" result="BackgroundImageFix"/>
<feColorMatrix in="SourceAlpha" type="matrix" values="0 0 0 0 0 0 0 0 0 0 0 0 0 0 0 0 0 0 127 0" result="hardAlpha"/>
<feOffset/>
<feGaussianBlur stdDeviation="5"/>
<feComposite in2="hardAlpha" operator="out"/>
<feColorMatrix type="matrix" values="0 0 0 0 0.960784 0 0 0 0 0.0470588 0 0 0 0 0.27451 0 0 0 1 0"/>
<feBlend mode="normal" in2="BackgroundImageFix" result="effect1_dropShadow_161_26"/>
<feBlend mode="normal" in="SourceGraphic" in2="effect1_dropShadow_161_26" result="shape"/>
</filter>
</defs>
</svg>
