<svg width="130" height="130" viewBox="0 0 130 130" fill="none" xmlns="http://www.w3.org/2000/svg">
<path d="M82.375 56.375H44.375V77.75C44.375 87.25 49.125 89.625 63.375 89.625C77.625 89.625 82.375 87.25 82.375 77.75V56.375ZM82.375 56.375V63.5C82.375 64.9092 82.7929 66.2867 83.5758 67.4584C84.3587 68.6301 85.4715 69.5434 86.7734 70.0826C88.0753 70.6219 89.5079 70.763 90.89 70.4881C92.2721 70.2132 93.5417 69.5346 94.5381 68.5381C95.5346 67.5417 96.2132 66.2721 96.4881 64.89C96.763 63.5079 96.6219 62.0753 96.0826 60.7734C95.5434 59.4715 94.6301 58.3587 93.4584 57.5758C92.2867 56.7929 90.9092 56.375 89.5 56.375H82.375ZM72.875 49.25V39.75M53.875 49.25V44.5M63.375 49.25V35M127 65C127 99.2417 99.2417 127 65 127C30.7583 127 3 99.2417 3 65C3 30.7583 30.7583 3 65 3C99.2417 3 127 30.7583 127 65Z" stroke="white" stroke-width="5"/>
</svg>
