<svg width="124" height="124" viewBox="0 0 124 124" fill="none" xmlns="http://www.w3.org/2000/svg">
<g filter="url(#filter0_d_181_32)">
<path d="M64.0433 91C63.7841 91 63.5248 90.925 63.2903 90.8L60.9203 89.3749C60.5623 89.1749 60.7352 89.0999 60.8586 89.0624C61.3277 88.8999 61.4264 88.8624 61.9325 88.5624C61.9819 88.5374 62.0559 88.5499 62.1053 88.5749L63.9322 89.6749C63.9939 89.7125 64.0927 89.7125 64.1544 89.6749L71.2891 85.4998C71.3508 85.4623 71.4002 85.3873 71.4002 85.2998V76.962C71.4002 76.8745 71.3631 76.7995 71.2891 76.762L64.1544 72.5993C64.0927 72.5618 64.0062 72.5618 63.9322 72.5993L56.7975 76.762C56.7234 76.7995 56.6864 76.887 56.6864 76.962V85.2998C56.6864 85.3748 56.7358 85.4498 56.7975 85.4873L58.7478 86.6248C59.8094 87.1624 60.4636 86.5248 60.4636 85.8998V77.662C60.4636 77.5495 60.55 77.4495 60.6734 77.4495H61.5745C61.6856 77.4495 61.7844 77.537 61.7844 77.662V85.8998C61.7844 87.3374 61.0191 88.1499 59.6736 88.1499C59.2663 88.1499 58.933 88.1499 58.0319 87.6999L56.1556 86.6123C55.6989 86.3373 55.4027 85.8373 55.4027 85.2998V76.962C55.4027 76.4245 55.6866 75.9119 56.1556 75.6494L63.2903 71.4743C63.747 71.2118 64.3395 71.2118 64.7839 71.4743L71.9186 75.6494C72.3753 75.9244 72.6716 76.4245 72.6716 76.962V85.2998C72.6716 85.8373 72.3877 86.3498 71.9186 86.6123L64.7839 90.7875C64.5741 90.925 64.3148 91 64.0433 91ZM69.8078 82.7747C69.8078 81.2121 68.7709 80.7996 66.5737 80.4996C64.3519 80.1996 64.1297 80.0496 64.1297 79.5246C64.1297 79.0871 64.3148 78.512 65.9566 78.512C67.4255 78.512 67.9686 78.8371 68.1908 79.8371C68.2155 79.9371 68.2895 79.9996 68.3883 79.9996H69.3141C69.3758 79.9996 69.4252 79.9746 69.4622 79.9371C69.4992 79.8871 69.5239 79.8371 69.5116 79.7746C69.3634 78.0495 68.2402 77.2495 65.9566 77.2495C63.9198 77.2495 62.7102 78.1245 62.7102 79.5746C62.7102 81.1621 63.9198 81.5872 65.8702 81.7872C68.2031 82.0247 68.3883 82.3622 68.3883 82.8247C68.3883 83.6372 67.7464 83.9747 66.2405 83.9747C64.3519 83.9747 63.9322 83.4997 63.7964 82.5497C63.7841 82.4497 63.6977 82.3747 63.5866 82.3747H62.6608C62.5497 82.3747 62.4509 82.4622 62.4509 82.5872C62.4509 83.7997 63.1052 85.2498 66.2281 85.2498C68.5117 85.2498 69.8078 84.3498 69.8078 82.7747ZM76.5352 76.512C76.5352 77.2745 75.918 77.8995 75.165 77.8995C74.412 77.8995 73.7948 77.2745 73.7948 76.512C73.7948 75.7244 74.4367 75.1244 75.165 75.1244C75.9056 75.1119 76.5352 75.7244 76.5352 76.512ZM76.313 76.512C76.313 75.8619 75.7945 75.3494 75.1527 75.3494C74.5231 75.3494 74.0047 75.8619 74.0047 76.512C74.0047 77.162 74.5231 77.687 75.1527 77.687C75.7945 77.6745 76.313 77.1495 76.313 76.512ZM75.7575 77.287H75.4366C75.4242 77.212 75.3748 76.812 75.3748 76.7995C75.3502 76.712 75.3255 76.662 75.2144 76.662H74.9428V77.287H74.6466V75.7244H75.1773C75.3625 75.7244 75.7205 75.7244 75.7205 76.137C75.7205 76.4245 75.5353 76.487 75.4242 76.5245C75.6341 76.537 75.6464 76.6745 75.6834 76.8745C75.6958 76.9995 75.7205 77.212 75.7575 77.287ZM75.4119 76.187C75.4119 75.9744 75.2638 75.9744 75.1897 75.9744H74.9428V76.412H75.1773C75.3748 76.412 75.4119 76.2745 75.4119 76.187ZM41.948 58.3738C41.948 58.0363 41.7752 57.7363 41.4913 57.5738L33.9245 53.1611C33.8011 53.0861 33.653 53.0486 33.5048 53.0361H33.4308C33.2827 53.0361 33.1469 53.0861 33.0111 53.1611L25.4567 57.5738C25.1728 57.7363 25 58.0488 25 58.3738L25.0123 70.2492C25.0123 70.4117 25.0987 70.5617 25.2345 70.6492C25.3703 70.7368 25.5431 70.7368 25.6913 70.6492L30.1844 68.0366C30.4683 67.8616 30.6411 67.5616 30.6411 67.2366V61.6864C30.6411 61.3614 30.8139 61.0489 31.0978 60.8864L33.0111 59.7738C33.1592 59.6863 33.3073 59.6488 33.4678 59.6488C33.6283 59.6488 33.7888 59.6863 33.9245 59.7738L35.8378 60.8864C36.1217 61.0489 36.2945 61.3614 36.2945 61.6864V67.2366C36.2945 67.5616 36.4673 67.8741 36.7512 68.0366L41.2444 70.6492C41.3802 70.7368 41.5653 70.7368 41.7011 70.6492C41.8369 70.5742 41.9233 70.4117 41.9233 70.2492L41.948 58.3738ZM83.3242 45.4108V67.4616C83.3242 67.7866 83.1514 68.0992 82.8675 68.2617L75.3008 72.6868C75.0169 72.8493 74.6713 72.8493 74.3873 72.6868L66.8206 68.2617C66.5367 68.0992 66.3639 67.7866 66.3639 67.4616V58.6113C66.3639 58.2863 66.5367 57.9738 66.8206 57.8113L74.3873 53.3861C74.6713 53.2236 75.0169 53.2236 75.3008 53.3861L77.1894 54.4861C77.3992 54.6112 77.6708 54.4486 77.6708 54.2111V42.4607C77.6708 42.1107 78.0411 41.8857 78.3497 42.0607L82.8552 44.6108C83.1391 44.7608 83.3242 45.0733 83.3242 45.4108ZM77.6461 61.5239C77.6461 61.4364 77.5967 61.3614 77.535 61.3239L74.9428 59.7988C74.8688 59.7613 74.7823 59.7613 74.7083 59.7988L72.1161 61.3239C72.042 61.3614 72.005 61.4364 72.005 61.5239V64.5615C72.005 64.649 72.0544 64.724 72.1161 64.7615L74.7083 66.2741C74.7823 66.3116 74.8688 66.3116 74.9305 66.2741L77.5227 64.7615C77.5967 64.724 77.6338 64.649 77.6338 64.5615V61.5239H77.6461ZM103.543 61.4364C103.827 61.2739 104 60.9614 104 60.6364V58.4988C104 58.1738 103.827 57.8613 103.543 57.6988L96.0259 53.2736C95.742 53.1111 95.3964 53.1111 95.1125 53.2736L87.5458 57.6988C87.2619 57.8613 87.0891 58.1738 87.0891 58.4988V67.3491C87.0891 67.6866 87.2619 67.9866 87.5458 68.1492L95.0631 72.4868C95.3347 72.6493 95.6803 72.6493 95.9642 72.4868L100.507 69.9242C100.815 69.7492 100.815 69.2992 100.507 69.1242L92.8906 64.699C92.7425 64.6115 92.6561 64.4615 92.6561 64.299V61.5239C92.6561 61.3614 92.7425 61.2114 92.8906 61.1239L95.2606 59.7363C95.3964 59.6488 95.5816 59.6488 95.7173 59.7363L98.0873 61.1239C98.2231 61.2114 98.3219 61.3614 98.3219 61.5239V63.699C98.3219 64.049 98.7045 64.274 99.0131 64.099L103.543 61.4364ZM94.0016 61.8739C93.9522 61.9114 93.9152 61.9614 93.9152 62.0239V63.724C93.9152 63.7865 93.9522 63.849 94.0016 63.874L95.4581 64.724C95.5075 64.7615 95.5816 64.7615 95.6309 64.724L97.0875 63.874C97.1369 63.8365 97.1739 63.7865 97.1739 63.724V62.0239C97.1739 61.9614 97.1369 61.8989 97.0875 61.8739L95.6309 61.0239C95.5816 60.9864 95.5075 60.9864 95.4581 61.0239L94.0016 61.8739ZM62.6237 67.3116V58.5113C62.6237 58.1863 62.4263 57.8738 62.1423 57.7113L54.6003 53.3111C54.3411 53.1611 53.9831 53.1361 53.6869 53.3111L46.1448 57.7113C45.8609 57.8738 45.6634 58.1738 45.6634 58.5113V67.3116C45.6634 67.6616 45.898 67.9616 46.1572 68.1117L53.7116 72.5118C54.0078 72.6868 54.3534 72.6743 54.625 72.5118L62.1547 68.1117C62.3769 67.9866 62.5373 67.7741 62.5991 67.5241C62.6114 67.4616 62.6237 67.3866 62.6237 67.3116ZM53.4523 51.6985L53.3536 51.761H53.4894L53.4523 51.6985ZM62.8583 67.9741L62.8089 67.8866V67.9991L62.8583 67.9741Z" fill="white"/>
</g>
<circle cx="62" cy="62" r="60" stroke="white" stroke-width="4"/>
<defs>
<filter id="filter0_d_181_32" x="21" y="42" width="87" height="57" filterUnits="userSpaceOnUse" color-interpolation-filters="sRGB">
<feFlood flood-opacity="0" result="BackgroundImageFix"/>
<feColorMatrix in="SourceAlpha" type="matrix" values="0 0 0 0 0 0 0 0 0 0 0 0 0 0 0 0 0 0 127 0" result="hardAlpha"/>
<feOffset dy="4"/>
<feGaussianBlur stdDeviation="2"/>
<feComposite in2="hardAlpha" operator="out"/>
<feColorMatrix type="matrix" values="0 0 0 0 0 0 0 0 0 0 0 0 0 0 0 0 0 0 0.25 0"/>
<feBlend mode="normal" in2="BackgroundImageFix" result="effect1_dropShadow_181_32"/>
<feBlend mode="normal" in="SourceGraphic" in2="effect1_dropShadow_181_32" result="shape"/>
</filter>
</defs>
</svg>
