<svg width="124" height="124" viewBox="0 0 124 124" fill="none" xmlns="http://www.w3.org/2000/svg">
<circle cx="62" cy="62" r="60" stroke="white" stroke-width="4"/>
<g filter="url(#filter0_d_180_21)">
<path d="M61.9999 56.96C64.7466 56.96 66.9866 59.2 66.9866 62C66.9866 64.6667 64.7466 66.9334 61.9999 66.9334C59.2533 66.9334 57.0133 64.6667 57.0133 62C57.0133 59.2 59.2533 56.96 61.9999 56.96ZM49.6532 83.3334C51.3333 84.3467 55.0133 82.8 59.2533 78.8C57.8666 77.2267 56.5066 75.52 55.2266 73.7334C53.0777 73.5277 50.9413 73.2073 48.8266 72.7734C47.4666 78.48 47.9733 82.4 49.6532 83.3334ZM51.5466 68.0267L50.7733 66.6667C50.4799 67.44 50.1866 68.2134 49.9999 68.96C50.7199 69.12 51.5199 69.2534 52.3466 69.3867L51.5466 68.0267ZM68.9866 66L71.1466 62L68.9866 58C68.1866 56.5867 67.3332 55.3334 66.5599 54.08C65.1199 54 63.5999 54 61.9999 54C60.3999 54 58.8799 54 57.4399 54.08C56.6666 55.3334 55.8133 56.5867 55.0133 58L52.8533 62L55.0133 66C55.8133 67.4134 56.6666 68.6667 57.4399 69.92C58.8799 70 60.3999 70 61.9999 70C63.5999 70 65.1199 70 66.5599 69.92C67.3332 68.6667 68.1866 67.4134 68.9866 66ZM61.9999 48.08C61.4932 48.6667 60.9599 49.28 60.4266 50H63.5732C63.0399 49.28 62.5066 48.6667 61.9999 48.08ZM61.9999 75.92C62.5066 75.3334 63.0399 74.72 63.5732 74H60.4266C60.9599 74.72 61.4932 75.3334 61.9999 75.92ZM74.3199 40.6667C72.6666 39.6534 68.9866 41.2 64.7466 45.2C66.1332 46.7734 67.4932 48.48 68.7733 50.2667C70.9599 50.48 73.1199 50.8 75.1733 51.2267C76.5332 45.52 76.0266 41.6 74.3199 40.6667ZM72.4533 55.9734L73.2266 57.3334C73.5199 56.56 73.8132 55.7867 73.9999 55.04C73.2799 54.88 72.4799 54.7467 71.6532 54.6134L72.4533 55.9734ZM76.3199 37.1734C80.2399 39.4134 80.6666 45.3067 79.0132 52.1867C85.7866 54.1867 90.6666 57.4934 90.6666 62C90.6666 66.5067 85.7866 69.8134 79.0132 71.8134C80.6666 78.6934 80.2399 84.5867 76.3199 86.8267C72.4266 89.0667 67.1199 86.5067 61.9999 81.6267C56.8799 86.5067 51.5732 89.0667 47.6533 86.8267C43.7599 84.5867 43.3333 78.6934 44.9866 71.8134C38.2133 69.8134 33.3333 66.5067 33.3333 62C33.3333 57.4934 38.2133 54.1867 44.9866 52.1867C43.3333 45.3067 43.7599 39.4134 47.6533 37.1734C51.5732 34.9334 56.8799 37.4934 61.9999 42.3734C67.1199 37.4934 72.4266 34.9334 76.3199 37.1734ZM75.5466 62C76.4533 64 77.2532 66 77.9199 68.0267C83.5199 66.3467 86.6666 63.9467 86.6666 62C86.6666 60.0534 83.5199 57.6534 77.9199 55.9734C77.2532 58 76.4533 60 75.5466 62ZM48.4533 62C47.5466 60 46.7466 58 46.0799 55.9734C40.4799 57.6534 37.3333 60.0534 37.3333 62C37.3333 63.9467 40.4799 66.3467 46.0799 68.0267C46.7466 66 47.5466 64 48.4533 62ZM72.4533 68.0267L71.6532 69.3867C72.4799 69.2534 73.2799 69.12 73.9999 68.96C73.8132 68.2134 73.5199 67.44 73.2266 66.6667L72.4533 68.0267ZM64.7466 78.8C68.9866 82.8 72.6666 84.3467 74.3199 83.3334C76.0266 82.4 76.5332 78.48 75.1733 72.7734C73.1199 73.2 70.9599 73.52 68.7733 73.7334C67.4932 75.52 66.1332 77.2267 64.7466 78.8ZM51.5466 55.9734L52.3466 54.6134C51.5199 54.7467 50.7199 54.88 49.9999 55.04C50.1866 55.7867 50.4799 56.56 50.7733 57.3334L51.5466 55.9734ZM59.2533 45.2C55.0133 41.2 51.3333 39.6534 49.6532 40.6667C47.9733 41.6 47.4666 45.52 48.8266 51.2267C50.9413 50.7928 53.0777 50.4724 55.2266 50.2667C56.5066 48.48 57.8666 46.7734 59.2533 45.2Z" fill="white"/>
</g>
<defs>
<filter id="filter0_d_180_21" x="26" y="30" width="72" height="72" filterUnits="userSpaceOnUse" color-interpolation-filters="sRGB">
<feFlood flood-opacity="0" result="BackgroundImageFix"/>
<feColorMatrix in="SourceAlpha" type="matrix" values="0 0 0 0 0 0 0 0 0 0 0 0 0 0 0 0 0 0 127 0" result="hardAlpha"/>
<feOffset dy="4"/>
<feGaussianBlur stdDeviation="2"/>
<feComposite in2="hardAlpha" operator="out"/>
<feColorMatrix type="matrix" values="0 0 0 0 0 0 0 0 0 0 0 0 0 0 0 0 0 0 0.25 0"/>
<feBlend mode="normal" in2="BackgroundImageFix" result="effect1_dropShadow_180_21"/>
<feBlend mode="normal" in="SourceGraphic" in2="effect1_dropShadow_180_21" result="shape"/>
</filter>
</defs>
</svg>
